<?xml version="1.0" encoding="utf-8"?>
<!-- Generator: Adobe Illustrator 21.1.0, SVG Export Plug-In . SVG Version: 6.00 Build 0)  -->
<svg version="1.1" id="Layer_1" xmlns="http://www.w3.org/2000/svg" xmlns:xlink="http://www.w3.org/1999/xlink" x="0px" y="0px"
	 viewBox="0 0 43 35" style="enable-background:new 0 0 43 35;" xml:space="preserve">
<g>
	<g>
		<path d="M6.2,11c10,0,20,0,30,0c1.9,0,1.9-3,0-3c-10,0-20,0-30,0C4.3,8,4.3,11,6.2,11L6.2,11z"/>
	</g>
</g>
<g>
	<g>
		<path d="M6.2,21c10,0,20,0,30,0c1.9,0,1.9-3,0-3c-10,0-20,0-30,0C4.3,18,4.3,21,6.2,21L6.2,21z"/>
	</g>
</g>
<g>
	<g>
		<path d="M6.2,31c10,0,20,0,30,0c1.9,0,1.9-3,0-3c-10,0-20,0-30,0C4.3,28,4.3,31,6.2,31L6.2,31z"/>
	</g>
</g>
</svg>
